<svg width="20" height="12" viewBox="0 0 20 12" fill="none" xmlns="http://www.w3.org/2000/svg">
<path d="M19.8507 5.60918C19.6722 5.41004 15.3782 0.726562 10 0.726562C4.62181 0.726562 0.32791 5.41004 0.149355 5.60918C-0.0497851 5.83176 -0.0497851 6.16824 0.149355 6.39082C0.32791 6.58996 4.62189 11.2734 10 11.2734C15.3781 11.2734 19.6721 6.58996 19.8507 6.39082C20.0498 6.16824 20.0498 5.83176 19.8507 5.60918ZM10 10.1016C7.73865 10.1016 5.89845 8.26137 5.89845 6C5.89845 3.73863 7.73865 1.89844 10 1.89844C12.2614 1.89844 14.1016 3.73863 14.1016 6C14.1016 8.26137 12.2614 10.1016 10 10.1016Z" fill="#8B5D9A"/>
</svg>
