<svg width="20" height="14" viewBox="0 0 20 14" fill="none" xmlns="http://www.w3.org/2000/svg">
<path d="M18.2422 0.148804H1.75781C0.788555 0.148804 0 0.937358 0 1.90662V12.0934C0 13.0627 0.788555 13.8512 1.75781 13.8512H18.2422C19.2114 13.8512 20 13.0627 20 12.0934V1.90662C20 0.937358 19.2114 0.148804 18.2422 0.148804ZM18.0128 1.32068L17.7782 1.51603L10.6974 7.41216C10.2933 7.74865 9.70664 7.74865 9.30258 7.41216L2.22184 1.51603L1.98723 1.32068H18.0128ZM1.17188 2.16669L6.94109 6.97072L1.17188 10.8103V2.16669ZM18.2422 12.6794H1.75781C1.47469 12.6794 1.23789 12.4775 1.18363 12.2102L7.8807 7.7531L8.55273 8.31271C8.97203 8.66185 9.48606 8.83642 10 8.83642C10.514 8.83642 11.028 8.66185 11.4473 8.31271L12.1194 7.7531L18.8164 12.2101C18.7621 12.4775 18.5253 12.6794 18.2422 12.6794ZM18.8281 10.8103L13.0589 6.97076L18.8281 2.16669V10.8103Z" fill="#8B5D9A"/>
</svg>
