<svg width="18" height="20" viewBox="0 0 18 20" fill="none" xmlns="http://www.w3.org/2000/svg">
<path d="M16.9688 14.1406C17.4002 14.1406 17.75 13.7909 17.75 13.3594V10.4688C17.75 8.74562 16.3481 7.34375 14.625 7.34375H13.6861V4.58852C13.6861 2.0584 11.5832 0 8.99855 0C6.41387 0 4.31105 2.0584 4.31105 4.58852V7.34375H3.375C1.65188 7.34375 0.25 8.74562 0.25 10.4688V16.875C0.25 18.5981 1.65188 20 3.375 20H14.625C16.3481 20 17.75 18.5981 17.75 16.875C17.75 16.4435 17.4002 16.0938 16.9688 16.0938C16.5373 16.0938 16.1875 16.4435 16.1875 16.875C16.1875 17.7366 15.4866 18.4375 14.625 18.4375H3.375C2.51344 18.4375 1.8125 17.7366 1.8125 16.875V10.4688C1.8125 9.60719 2.51344 8.90625 3.375 8.90625H14.625C15.4866 8.90625 16.1875 9.60719 16.1875 10.4688V13.3594C16.1875 13.7909 16.5373 14.1406 16.9688 14.1406ZM12.1236 7.34375H5.87355V4.58852C5.87355 2.91996 7.27543 1.5625 8.99855 1.5625C10.7217 1.5625 12.1236 2.91996 12.1236 4.58852V7.34375Z" fill="#8B5D9A"/>
</svg>
